<svg width="30" height="38" viewBox="0 0 30 38" fill="none" xmlns="http://www.w3.org/2000/svg">
<g id="FGT Logo">
<path id="path48" d="M19.9209 30.0194C19.1887 28.8548 18.6163 27.9617 18.5671 27.3878C18.5408 27.085 18.5383 26.7994 18.5596 26.537C18.2803 25.6993 18.5183 24.7329 18.6671 24.2729C18.6753 24.1164 18.6893 23.6951 18.7024 23.2862C18.7779 20.97 18.7733 20.309 18.8306 20.1241C18.9152 19.7745 19.174 19.5886 19.3377 19.4814C19.3713 19.0123 19.6676 18.821 19.8559 18.7435C19.8456 18.6421 19.8391 18.5378 19.8379 18.4301C19.8322 17.8406 19.9187 17.1159 20.0759 16.4421C20.2516 15.6846 20.6717 15.4477 20.9227 15.3064C21.07 15.2233 21.07 15.2233 21.1004 15.1276C21.3066 14.4794 21.8356 13.6623 22.348 12.9889C22.363 11.8474 22.1997 10.885 21.9884 9.83855C21.8666 9.23436 22.1361 6.31593 21.9436 5.77559C21.7211 5.15133 21.624 4.45125 21.4213 3.82164C21.0719 2.73735 20.368 2.49452 20.066 1.29597C19.8818 0.564278 19.7102 0.620663 19.4577 0.177078C19.3209 -0.062973 18.8529 -0.0488815 18.701 0.158493C18.6545 0.222137 18.6071 0.428444 18.5826 0.525192C18.5 0.85281 17.5025 0.230469 17.3366 0.569405C17.2763 0.692844 17.1365 0.851955 17.0749 0.974331C17.0145 1.09457 17.0019 1.25111 17.0327 1.38951C16.8293 1.82882 16.9354 2.14363 16.8261 2.7239C16.6836 3.48015 17.3593 4.66589 16.5233 4.72376C15.6786 4.7825 15.6772 6.95108 15.6195 8.65879C15.7087 8.90653 15.7504 9.13975 15.7458 9.68542C15.7417 10.142 15.7774 10.523 15.8115 10.891C15.8505 11.3096 15.8907 11.7427 15.873 12.269C15.8566 12.7642 15.9304 12.9415 16.042 13.2097C16.1155 13.3866 16.1986 13.5878 16.2655 13.8737C16.4107 13.9284 16.5908 14.0585 16.6506 14.3673C16.7252 14.6217 16.7753 15.1695 16.8767 17.0119C16.8964 17.3635 16.9181 17.7581 16.9299 17.8852C17.1367 18.5626 17.5168 20.1334 17.0813 21.4204C17.1195 21.8465 17.1187 22.3176 17.0793 22.8232C16.9291 24.7466 16.7122 25.8695 16.3759 26.4643C16.3296 26.5463 16.2795 26.6125 16.2301 26.6815C16.2337 26.7977 16.24 26.9196 16.2545 27.0578C16.3638 28.0977 16.7045 30.5974 17.009 31.4337C17.0955 31.6714 17.2529 31.8205 17.4048 31.7768C17.7021 32.1763 17.8975 32.2743 18.0808 32.6196C18.2195 32.8811 18.2006 33.4852 18.3024 34.2746C18.3663 34.7694 18.1521 35.3288 18.1521 35.3288H19.2257C19.2257 35.3288 19.0271 34.4898 19.035 33.8833C19.0421 33.3346 19.122 32.6957 19.0969 32.0925C19.0989 32.0893 19.1006 32.0855 19.1025 32.0822C19.3596 31.6666 19.6415 31.3145 19.8757 30.8502C19.9546 30.6936 20.0354 30.508 20.1128 30.3115C20.0817 30.2702 20.0508 30.2269 20.0214 30.1791L19.9209 30.0194Z" fill="#155343"/>
<path id="path50" d="M5.916 30.4508C5.91534 30.4498 5.15437 30.1926 4.79703 29.6125C4.58764 29.2726 4.42865 28.8354 4.20032 28.5456C4.47244 28.6335 4.97428 28.3389 5.19078 28.5957C5.42914 28.8787 5.48333 29.3795 5.916 29.1944C5.93049 29.8421 5.93769 29.8804 5.916 30.4508ZM8.65873 28.2674C8.54779 27.892 8.45998 27.5956 8.16527 27.1529C8.08187 27.0275 7.99297 26.9145 7.9047 26.8013C7.77777 26.6392 7.64649 26.471 7.51916 26.2644C6.92505 25.3012 6.55232 24.2645 6.41208 23.1826C6.33263 22.5681 6.34191 21.9537 6.35129 21.3599C6.35757 20.9446 6.36385 20.5525 6.34158 20.163C6.32977 19.953 6.30901 19.753 6.28901 19.5551C6.25024 19.1782 6.21063 18.7891 6.2252 18.3474C6.26121 17.2509 6.55122 15.8969 6.7844 14.8094C6.83404 14.5762 6.8816 14.356 6.92271 14.1541C7.09593 13.3054 7.06612 12.4338 7.03481 11.5108C7.00769 10.715 6.97955 9.89193 7.08807 9.06008C7.14232 8.64383 7.16977 8.1146 7.2587 7.80536C7.04511 7.54074 7.02653 7.48799 6.85112 7.2992C6.34334 6.75267 5.21633 6.98503 4.78815 7.59264C4.52568 7.96511 2.91474 8.59749 2.81386 9.04705C2.52969 9.49427 2.24553 9.94276 2.0908 10.564C2.00357 10.9143 1.94638 11.3004 1.91314 11.6977C1.77693 11.8995 1.63159 12.0947 1.47309 12.316C1.09215 12.848 2.06712 13.2614 1.93944 14.1027C1.74227 15.4014 2.09172 14.2295 1.7873 15.511C1.5857 16.3601 0.325481 16.2098 0.0604935 19.6114C-0.191851 22.8503 0.424948 23.1576 0.455338 23.616C0.505154 24.367 0.36634 25.3863 0.555723 26.1071C0.971504 27.6898 1.9828 27.3333 2.3856 27.8939C2.56242 28.1402 3.11024 28.0655 3.20225 28.3516C3.98264 30.7765 5.01438 30.8134 5.16015 30.9251C5.25407 30.982 5.34493 31.0516 5.42764 31.1566C5.45343 31.1895 5.47454 31.226 5.49764 31.2611C5.65211 31.4656 5.7257 31.6771 5.80993 32.0558C5.80834 32.0545 5.80783 32.0541 5.80624 32.053C5.82693 32.1597 5.84058 32.2676 5.8507 32.3762C5.89776 32.5848 5.91174 32.8086 5.89508 33.0346C5.97411 33.2424 6.04184 33.4655 6.05541 33.5529C6.08128 33.7199 6.04351 34.758 6.03547 34.8736C5.99822 35.4043 6.02193 35.8966 5.91073 36.044L6.96172 36.0446C6.82174 35.7369 6.88111 34.8095 6.87281 34.1195C6.86996 33.8827 6.85723 33.5215 6.8574 33.1783C6.81629 32.7798 6.9088 32.7131 6.9181 32.4175C6.92732 32.1215 6.80215 31.7459 6.87843 31.4424C6.91986 31.0318 6.96592 30.6197 7.03071 30.2231C7.08848 30.2193 7.33035 30.1882 7.64249 30.1396C7.61411 30.2005 7.58329 30.2576 7.55442 30.3177C7.89139 30.5864 8.2283 30.5822 8.5653 30.3005C8.59578 30.2799 8.62776 30.274 8.65948 30.2738C8.83999 30.123 8.89441 29.6014 9.11402 29.4011C9.07308 29.3405 9.02788 29.2839 8.99689 29.2155C8.82726 28.8377 8.73784 28.5347 8.65873 28.2674Z" fill="#2B9A40"/>
<path id="path52" d="M13.9114 28.1383C13.6483 28.842 13.3617 29.4979 13.0825 30.1722C13.0819 30.1736 13.0815 30.1751 13.081 30.1764C13.1307 29.5359 13.1861 28.8856 13.2677 28.2651C13.4658 28.2483 13.6356 27.8512 13.8111 27.5079C13.9705 27.196 14.1601 27.0401 14.3605 26.9332C14.1923 27.2849 14.0656 27.7257 13.9114 28.1383ZM12.5407 29.8459C12.4779 29.8581 12.4058 29.8283 12.365 29.7569C12.1483 29.3795 11.9272 29.0068 11.7061 28.6339C11.7015 28.6261 11.6969 28.6182 11.6921 28.6103C11.6058 28.4646 11.6796 28.188 11.8464 28.2632C11.8795 28.2781 11.9098 28.2876 11.9382 28.2922C12.1307 28.3248 12.2186 28.1334 12.33 27.9015C12.3967 27.7626 12.5949 27.765 12.6196 27.9512C12.6938 28.5136 12.7271 29.0814 12.7298 29.6521C12.7305 29.8041 12.6292 29.8665 12.5407 29.8459ZM11.7647 30.3968C11.432 30.0941 11.2292 30.0075 10.935 29.2062L10.9414 29.1822L11.0151 28.9062C11.0151 28.9062 11.0959 28.9695 11.1978 29.0587C11.3025 29.1508 11.4293 29.2702 11.5141 29.3783C11.7929 29.7334 11.8853 30.0055 11.9979 30.6345C11.8545 30.4969 11.8778 30.4995 11.7647 30.3968ZM15.9883 18.0384C15.9546 17.9181 15.8568 14.8837 15.7464 14.6061C15.6977 14.17 15.6111 15.5782 15.474 15.1682C15.4903 15.0697 15.5006 14.9691 15.4959 14.8673C15.4523 13.9177 15.2557 13.6696 15.1386 13.2574C15.0791 13.0483 15.0398 12.7978 15.0519 12.3903C15.0795 11.467 14.9323 10.8641 14.94 9.87443C14.9473 8.92704 14.8186 9.20041 14.653 8.32776C14.6454 8.28718 14.636 8.25344 14.6275 8.21606C14.3371 6.92461 13.6294 7.42671 13.3402 6.3138C12.993 4.97728 13.2486 4.79831 12.4977 3.79367C11.9695 3.08718 11.2906 3.64759 10.8452 4.43331C10.5722 4.9147 10.3859 5.43966 10.2809 6.02099C9.98535 6.59913 9.68987 4.88502 9.52889 5.68847C9.43812 6.14145 9.37859 5.72306 9.34402 6.23648C9.20235 6.49747 9.05107 6.75012 8.88629 7.03609C8.72738 7.31181 8.59501 7.56425 8.48358 7.83634C8.3708 8.1112 8.28097 8.41148 8.20981 8.77647C8.17582 8.95074 8.14476 9.13569 8.11912 9.34606C7.91401 11.0254 8.27754 12.7215 7.96088 14.3786C7.75116 15.4764 7.37088 17.1382 7.33254 18.3834C7.31361 18.9978 7.40706 19.5142 7.43878 20.1068C7.49061 21.0777 7.38344 22.0657 7.49948 23.0205C7.63754 24.1561 8.01674 25.0766 8.43578 25.8018C8.61972 26.1201 8.83003 26.3535 9.01841 26.6557C9.53975 27.4923 9.46876 27.9147 9.82452 28.7596C9.84259 28.8025 9.86638 28.8433 9.89317 28.8828C10.0628 29.1312 10.3829 29.3054 10.572 29.405C10.6048 29.4222 10.6341 29.4377 10.6575 29.4503C10.8341 30.0572 11.0132 30.4057 11.1875 30.6085C11.3584 30.8068 11.563 30.9905 11.8767 31.3803C12.0085 31.5441 12.2271 32.3607 12.2531 32.5703C12.2801 32.7862 12.2408 33.497 12.2324 33.6465C12.1936 34.3327 12.1834 34.6793 12.0676 34.87L13.196 34.7912C13.0503 34.3931 13.112 33.5636 13.1035 32.6715C13.0981 32.1139 13.0568 32.2004 13.1292 31.6923C13.2057 31.1562 13.9794 28.9062 14.7957 26.7428C14.9124 26.6929 15.0283 26.6335 15.1403 26.5493C15.2897 26.4368 15.4323 26.2789 15.5593 26.0274C15.6641 25.8202 15.7498 25.5172 15.8205 25.1697C15.981 24.3816 16.0634 23.3631 16.1096 22.7019C16.1429 22.2233 16.1453 21.7423 16.1006 21.2992C16.4318 20.3573 16.2726 19.0576 15.9883 18.0384Z" fill="#BAE154"/>
<path id="path54" d="M25.0337 31.0208C24.6997 31.6128 24.5501 31.0642 24.0574 32.2249C24.0567 32.2264 23.9793 31.4633 23.0661 30.6475C23.2219 30.4017 23.499 30.3438 23.7815 30.8192C23.9481 31.0998 24.2423 30.7876 24.3409 30.7876C25.0379 30.7876 25.4135 30.3466 25.0337 31.0208ZM29.9734 22.8061C29.7788 20.0978 28.2643 20.2176 28.1162 19.5414C27.8927 18.5211 28.1492 19.4542 28.0045 18.4201C27.9107 17.7505 27.7426 17.4211 27.4629 16.9976C27.3465 16.8214 27.2398 16.6662 27.1397 16.5053C27.1153 16.189 27.0735 15.8817 27.0094 15.6028C26.8958 15.108 26.687 14.7511 26.4785 14.3951C26.4045 14.0371 25.2214 13.5335 25.0287 13.2371C24.7143 12.7533 23.8868 12.5684 23.514 13.0034C23.4231 13.1094 23.3198 13.2388 23.2131 13.377C22.9456 13.723 22.647 14.1482 22.3898 14.577C22.1496 14.9773 21.9468 15.3762 21.8489 15.7053C21.6388 16.4105 21.115 16.0592 20.9221 16.9455C20.8051 17.4829 20.7144 18.162 20.7195 18.7455C20.7249 19.3548 20.9409 19.8671 20.9604 20.4359C20.986 21.181 20.3736 18.961 20.3271 19.8425C20.3239 19.9051 20.3312 19.9671 20.3425 20.0278C20.2459 20.2802 19.8772 20.3226 19.8429 20.5914C19.765 20.7622 19.6959 24.3258 19.6722 24.3999C19.4714 25.0274 19.359 25.8279 19.5927 26.4077C19.5612 26.6807 19.5629 26.9768 19.5864 27.2716C19.625 27.7545 20.2345 28.8251 20.5836 29.4218C20.6587 29.5502 20.7225 29.6577 20.7652 29.7315C20.8942 29.9541 21.0455 30.0578 21.202 30.1283C21.2359 30.1437 21.2699 30.159 21.3042 30.1719C22.8457 30.8852 23.6021 33.1134 23.6559 33.4436C23.7071 33.7564 23.678 34.0138 23.6741 34.3572C23.6681 34.9065 23.7116 35.424 23.609 35.6691L24.6976 36.0007C24.6159 35.883 24.5602 35.3802 24.5328 34.9576C24.5268 34.8657 24.4991 33.7014 24.5182 33.5685C24.5366 33.4395 24.9276 32.2787 25.0482 32.1566C25.1713 32.0319 25.8655 31.3335 25.9731 31.1108C26.2243 30.5905 26.8564 29.7497 26.9862 29.5538C27.282 29.1075 28.3192 30.3741 28.4418 27.6881C28.469 27.0933 29.2556 26.5613 29.2923 25.9633C29.3146 25.5983 30.1588 25.3848 29.9734 22.8061Z" fill="#149EB0"/>
<path id="path56" d="M26.9547 36.8052C26.0832 36.154 20.7573 34.6673 15.2807 34.6545V34.6541C15.2691 34.6541 15.2226 34.6541 15.2109 34.6541V34.6545C9.73426 34.6673 4.40829 36.154 3.53698 36.8052C3.10145 37.1306 3.09466 38.0411 3.1994 37.9986C3.34249 37.9405 3.67128 37.7592 4.20116 37.5646C7.3739 36.3992 11.6494 35.7702 15.2458 35.7633C18.8421 35.7702 23.1177 36.3992 26.2905 37.5646C26.8203 37.7592 27.1491 37.9405 27.2923 37.9986C27.3971 38.0411 27.3903 37.1306 26.9547 36.8052Z" fill="#155343"/>
</g>
</svg>
