<svg width="37" height="36" viewBox="0 0 37 36" fill="none" xmlns="http://www.w3.org/2000/svg">
<g id="plus.circle 1" clip-path="url(#clip0_852_78)">
<g id="Group">
<path id="Vector" d="M18.5 35.9823C28.3471 35.9823 36.5 27.8157 36.5 17.9912C36.5 8.14893 28.3294 0 18.4823 0C8.65293 0 0.5 8.14893 0.5 17.9912C0.5 27.8157 8.67058 35.9823 18.5 35.9823ZM18.5 32.9838C10.1706 32.9838 3.51765 26.3165 3.51765 17.9912C3.51765 9.66584 10.1529 2.99852 18.4823 2.99852C26.8118 2.99852 33.5 9.66584 33.5 17.9912C33.5 26.3165 26.8294 32.9838 18.5 32.9838Z" fill="black"/>
<path id="Vector_2" d="M10.3118 17.9912C10.3118 18.8554 10.9118 19.4375 11.8118 19.4375H16.9999V24.6408C16.9999 25.5227 17.6 26.1401 18.4647 26.1401C19.347 26.1401 19.9647 25.5404 19.9647 24.6408V19.4375H25.1706C26.0529 19.4375 26.6706 18.8554 26.6706 17.9912C26.6706 17.1093 26.0529 16.4918 25.1706 16.4918H19.9647V11.3062C19.9647 10.4067 19.347 9.78931 18.4647 9.78931C17.6 9.78931 16.9999 10.4067 16.9999 11.3062V16.4918H11.8118C10.9118 16.4918 10.3118 17.1093 10.3118 17.9912Z" fill="black"/>
</g>
</g>
<defs>
<clipPath id="clip0_852_78">
<rect width="36" height="36" fill="white" transform="translate(0.5)"/>
</clipPath>
</defs>
</svg>
